<svg xmlns="http://www.w3.org/2000/svg" viewBox="0 0 35.59 35.59"><defs><style>.cls-1{fill:none;}</style></defs><g id="Layer_2" data-name="Layer 2"><g id="Layer_1-2" data-name="Layer 1"><path d="M34.75,16.91c-1.32-1.36-8.33-8.12-16.95-8.12S2.16,15.55.84,16.91a1.25,1.25,0,0,0,0,1.77C2.16,20,9.17,26.8,17.8,26.8s15.64-6.76,17-8.11A1.26,1.26,0,0,0,34.75,16.91Zm-30,.54c2.12-1.94,7.16-5.88,13-5.88s10.9,3.94,13,5.88a.47.47,0,0,1,0,.69C28.77,20,23.64,24,17.8,24s-11-4-13-5.88A.46.46,0,0,1,4.77,17.45Z"/><circle cx="17.8" cy="17.8" r="5.31"/><rect class="cls-1" x="16.06" y="3.89" width="3.47" height="27.81" rx="1.74" transform="translate(17.8 42.96) rotate(-135)"/><rect class="cls-1" width="35.59" height="35.59"/></g></g></svg>