<svg xmlns="http://www.w3.org/2000/svg" viewBox="0 0 35.59 35.59"><defs><style>.cls-1{fill:none;}</style></defs><g id="Layer_2" data-name="Layer 2"><g id="Layer_1-2" data-name="Layer 1"><rect x="16.06" y="3.89" width="3.47" height="27.81" rx="1.74" transform="translate(17.8 42.96) rotate(-135)"/><path d="M11.9,22.75a26.13,26.13,0,0,1-7.13-4.61.47.47,0,0,1,0-.69c2.12-1.94,7.16-5.88,13-5.88a14.73,14.73,0,0,1,4.53.75l2.21-2.2A18.9,18.9,0,0,0,17.8,8.79c-8.63,0-15.64,6.76-17,8.12a1.25,1.25,0,0,0,0,1.77,31.07,31.07,0,0,0,8.89,6.25Z"/><path d="M34.75,16.91a31.29,31.29,0,0,0-6.86-5.23l-2.13,2.13a26.59,26.59,0,0,1,5.06,3.64.47.47,0,0,1,0,.69C28.77,20,23.64,24,17.8,24a13.1,13.1,0,0,1-2.09-.17l-2.36,2.36a18,18,0,0,0,4.45.59c8.63,0,15.64-6.76,17-8.11A1.26,1.26,0,0,0,34.75,16.91Z"/><path d="M21.05,13.63a5.28,5.28,0,0,0-7.42,7.42Z"/><path d="M16.63,23a5.67,5.67,0,0,0,1.17.13,5.3,5.3,0,0,0,5.3-5.3A5.67,5.67,0,0,0,23,16.63Z"/><rect class="cls-1" width="35.59" height="35.59"/></g></g></svg>