<svg xmlns="http://www.w3.org/2000/svg" xmlns:xlink="http://www.w3.org/1999/xlink" viewBox="0 0 143.73 93.48"><defs><style>.cls-1{fill:url(#linear-gradient);}</style><linearGradient id="linear-gradient" x1="71.86" y1="11.43" x2="71.86" y2="92.21" gradientUnits="userSpaceOnUse"><stop offset="0" stop-color="#6b7aff"/><stop offset="1" stop-color="#5465ff"/></linearGradient></defs><g id="Layer_2" data-name="Layer 2"><g id="Layer_1-2" data-name="Layer 1"><path class="cls-1" d="M14,93.48h0a14,14,0,0,1-14-14V72A14,14,0,0,1,14,58h0A14,14,0,0,1,28,72v7.44A14,14,0,0,1,14,93.48Zm91.15-14V50.27a14,14,0,0,0-14-14h0a14,14,0,0,0-14,14V79.46a14,14,0,0,0,14,14h0A14,14,0,0,0,105.16,79.46Zm-38.57,0V31.92a14,14,0,0,0-14-14h0a14,14,0,0,0-14,14V79.46a14,14,0,0,0,14,14h0A14,14,0,0,0,66.59,79.46Zm77.14,0V14a14,14,0,0,0-14-14h0a14,14,0,0,0-14,14V79.46a14,14,0,0,0,14,14h0A14,14,0,0,0,143.73,79.46Z"/></g></g></svg>