<svg xmlns="http://www.w3.org/2000/svg" xmlns:xlink="http://www.w3.org/1999/xlink" viewBox="0 0 157.58 157.58"><defs><style>.cls-1{fill:url(#linear-gradient);}.cls-2{fill:none;}</style><linearGradient id="linear-gradient" x1="78.79" y1="47.48" x2="78.79" y2="119.12" gradientUnits="userSpaceOnUse"><stop offset="0" stop-color="#6b7aff"/><stop offset="1" stop-color="#5465ff"/></linearGradient></defs><g id="Layer_2" data-name="Layer 2"><g id="Layer_1-2" data-name="Layer 1"><path class="cls-1" d="M28.35,120.24H26.62a11.55,11.55,0,0,1-11.56-11.56v-8.33A11.55,11.55,0,0,1,26.62,88.79h1.73a11.55,11.55,0,0,1,11.56,11.56v8.33A11.55,11.55,0,0,1,28.35,120.24Zm80-11.56V81.06A11.56,11.56,0,0,0,96.76,69.5H95A11.56,11.56,0,0,0,83.47,81.06v27.62A11.55,11.55,0,0,0,95,120.24h1.73A11.55,11.55,0,0,0,108.32,108.68Zm-34.2,0V64.78A11.57,11.57,0,0,0,62.56,53.22H60.82A11.57,11.57,0,0,0,49.26,64.78v43.9a11.56,11.56,0,0,0,11.56,11.56h1.74A11.56,11.56,0,0,0,74.12,108.68Zm68.41,0V48.9A11.57,11.57,0,0,0,131,37.34h-1.74A11.57,11.57,0,0,0,117.67,48.9v59.78a11.56,11.56,0,0,0,11.56,11.56H131A11.56,11.56,0,0,0,142.53,108.68Z"/><rect class="cls-2" width="157.58" height="157.58"/></g></g></svg>