<svg xmlns="http://www.w3.org/2000/svg" viewBox="0 0 35.59 35.59"><defs><style>.cls-1{fill:none;}</style></defs><g id="Layer_2" data-name="Layer 2"><g id="Layer_1-2" data-name="Layer 1"><path d="M28.14,11.81,15,24.92l2,2a1.09,1.09,0,0,0,1.56,0l7.16-7.16a10.65,10.65,0,0,0,2.13-2.95,5.71,5.71,0,0,0,.7-2.73s0-.07,0-.11A5.21,5.21,0,0,0,28.14,11.81Z"/><path d="M12.58,22.46,25.84,9.2a5.67,5.67,0,0,0-8,2.29,5.68,5.68,0,0,0-9.33-1.21A5,5,0,0,0,7,14s0,.07,0,.11a5.71,5.71,0,0,0,.7,2.73,10.65,10.65,0,0,0,2.13,2.95Z"/><rect x="16.06" y="3.89" width="3.47" height="27.81" rx="1.74" transform="translate(17.8 42.96) rotate(-135)"/><rect class="cls-1" width="35.59" height="35.59"/></g></g></svg>