<svg xmlns="http://www.w3.org/2000/svg" viewBox="0 0 35.59 35.59"><defs><style>.cls-1{fill:none;}</style></defs><g id="Layer_2" data-name="Layer 2"><g id="Layer_1-2" data-name="Layer 1"><rect class="cls-1" width="35.59" height="35.59"/><path d="M27.06,9.27a6,6,0,0,0-9.26,1.85A6,6,0,0,0,7.93,9.84a5.38,5.38,0,0,0-1.52,3.89s0,.08,0,.11a6,6,0,0,0,.74,2.89,11,11,0,0,0,2.25,3.12l3.54,3.54Z"/><path d="M29.05,12.47,15.53,26,17,27.43a1.18,1.18,0,0,0,1.65,0l7.58-7.58a11,11,0,0,0,2.25-3.12,6,6,0,0,0,.74-2.89s0-.07,0-.11A5.73,5.73,0,0,0,29.05,12.47Z"/><rect x="16.96" y="3.09" width="3.67" height="29.41" rx="1.74" transform="translate(19.5 43.67) rotate(-135)"/></g></g></svg>