<svg xmlns="http://www.w3.org/2000/svg" viewBox="0 0 142.02 157.21"><defs><style>.cls-1{fill:#5465ff;}.cls-2{fill:#fff;}</style></defs><g id="Layer_2" data-name="Layer 2"><g id="Layer_1-2" data-name="Layer 1"><path d="M.08,140C2.17,156.2,14.84,157.16,64,157.21L51.89,98.39C39.32,104.35-2.1,123.15.08,140Z"/><path d="M90.13,98.39,78,157.21c49.14-.05,61.82-1,63.9-17.17C144.12,123.15,102.71,104.35,90.13,98.39Z"/><path class="cls-1" d="M89.86,86.67c.75-3.25,15.56-9.58,18.56-48.55S71,0,71,0,30.61-.86,33.6,38.12s17.82,45.3,18.57,48.55c.65,2.85,1.81,10.73-.28,11.72L71,109.87,90.13,98.39C88,97.4,89.2,89.52,89.86,86.67Z"/><polyline class="cls-2" points="78.04 157.21 90.13 98.39 90.13 98.39 71.01 109.87 71.01 109.87 51.89 98.39 63.99 157.21"/><path class="cls-2" d="M78,70.59c0-9-13.92-9-13.92,0s13.92,9,13.92,0Z"/><path class="cls-2" d="M63.61,32.27c2-7,13.43-7.29,14.64.33.67,4.24-2,6.5-5.06,8.65-4,2.77-7,5.77-8.08,10.65-1.43,6.28,8.23,9,9.67,2.66,1.2-5.25,8.13-6.94,10.94-11.44,3.73-5.95,3.46-14.42-1.11-19.82-9.11-10.76-26.83-7.25-30.67,6.3-1.76,6.22,7.91,8.87,9.67,2.67Z"/><path class="cls-1" d="M71,109.87l-5.6,5.61v.06a5.61,5.61,0,0,0,5.6,5.61h0a5.61,5.61,0,0,0,5.61-5.61v-.06Z"/><polygon class="cls-1" points="78.04 157.21 63.99 157.21 68.02 117.73 73.51 117.73 78.04 157.21"/><polygon points="63.03 118.56 62.67 118.21 71.01 109.87 79.35 118.21 79 118.56 71.01 110.58 63.03 118.56"/></g></g></svg>