<svg xmlns="http://www.w3.org/2000/svg" xmlns:xlink="http://www.w3.org/1999/xlink" viewBox="0 0 141.99 157.21"><defs><style>.cls-1{fill:#fff;}.cls-2{fill:url(#New_Gradient_Swatch_1);}</style><linearGradient id="New_Gradient_Swatch_1" x1="71.01" y1="-0.73" x2="71.01" y2="153.82" gradientUnits="userSpaceOnUse"><stop offset="0" stop-color="#6b7aff"/><stop offset="1" stop-color="#5465ff"/></linearGradient></defs><g id="Layer_2" data-name="Layer 2"><g id="Layer_1-2" data-name="Layer 1"><g id="Layer_2-2" data-name="Layer 2"><g id="Layer_1-2-2" data-name="Layer 1-2"><polyline class="cls-1" points="78.04 157.21 90.13 98.39 90.13 98.39 71.01 109.87 71.01 109.87 51.89 98.39 63.99 157.21"/><path class="cls-2" d="M90.13,98.39,71,109.87,51.89,98.39c2.09-1,.93-8.87.28-11.72-.75-3.25-15.58-9.57-18.57-48.55S71,0,71,0s40.42-.85,37.42,38.12S90.61,83.42,89.86,86.67C89.2,89.52,88,97.4,90.13,98.39ZM71,109.87l-5.6,5.61v.06a5.61,5.61,0,0,0,5.6,5.61h0a5.61,5.61,0,0,0,5.61-5.61h0v-.06Zm2.51,7.86H68l-4,39.48H78ZM71,110.58l8,8,.35-.35L71,109.87l-8.34,8.34.36.35Z"/><path d="M.08,140C2.17,156.2,14.84,157.16,64,157.21L51.89,98.39C39.32,104.35-2.1,123.15.08,140Z"/><path d="M90.13,98.39,78,157.21c49.14-.05,61.82-1,63.9-17.17C144.12,123.15,102.71,104.35,90.13,98.39Z"/><path class="cls-1" d="M78,70.59c0-9-13.92-9-13.92,0S78,79.59,78,70.59Z"/><path class="cls-1" d="M63.61,32.27c2-7,13.43-7.29,14.64.33.67,4.24-2,6.5-5.06,8.65-4,2.77-7,5.77-8.08,10.65-1.43,6.28,8.23,9,9.67,2.66,1.2-5.25,8.13-6.94,10.94-11.44,3.73-5.95,3.46-14.42-1.11-19.82-9.11-10.76-26.83-7.25-30.67,6.3C52.18,35.82,61.85,38.47,63.61,32.27Z"/></g></g></g></g></svg>