<svg xmlns="http://www.w3.org/2000/svg" xmlns:xlink="http://www.w3.org/1999/xlink" viewBox="0 0 157.58 157.58"><defs><style>.cls-1{fill:#fff;}.cls-2{fill:url(#New_Gradient_Swatch_1);}.cls-3{fill:none;}</style><linearGradient id="New_Gradient_Swatch_1" x1="78.81" y1="7.94" x2="78.81" y2="144.01" gradientUnits="userSpaceOnUse"><stop offset="0" stop-color="#6b7aff"/><stop offset="1" stop-color="#5465ff"/></linearGradient></defs><g id="Layer_2" data-name="Layer 2"><g id="Layer_1-2" data-name="Layer 1"><g id="Layer_2-2" data-name="Layer 2"><g id="Layer_1-2-2" data-name="Layer 1-2"><polyline class="cls-1" points="85 147 95.64 95.21 95.64 95.21 78.81 105.32 78.81 105.32 61.98 95.21 72.63 147"/><path class="cls-2" d="M95.64,95.21,78.8,105.32,62,95.21c1.84-.87.81-7.81.24-10.32C61.56,82,48.51,76.47,45.87,42.15S78.8,8.59,78.8,8.59s35.59-.75,32.94,33.56S96.06,82,95.4,84.89C94.82,87.4,93.77,94.34,95.64,95.21ZM78.8,105.32l-4.93,4.94v0a5,5,0,0,0,4.93,4.94h0a4.94,4.94,0,0,0,4.94-4.94h0v0ZM81,112.24H76.18L72.63,147H85Zm-2.2-6.3,7,7,.31-.31-7.34-7.34-7.34,7.34.31.31Z"/><path d="M16.36,131.84C18.2,146.11,29.36,147,72.64,147L62,95.21C50.91,100.46,14.44,117,16.36,131.84Z"/><path d="M95.64,95.21,85,147c43.26-.05,54.43-.88,56.26-15.12C143.17,117,106.72,100.46,95.64,95.21Z"/><path class="cls-1" d="M85,70.74c0-7.93-12.25-7.93-12.25,0S85,78.66,85,70.74Z"/><path class="cls-1" d="M72.29,37c1.76-6.16,11.83-6.42,12.89.29.59,3.73-1.76,5.72-4.45,7.62-3.52,2.43-6.17,5.08-7.12,9.37-1.25,5.53,7.25,7.93,8.52,2.34,1.05-4.62,7.16-6.11,9.63-10.07,3.28-5.24,3-12.69-1-17.45-8-9.47-23.62-6.38-27,5.55C62.23,40.13,70.74,42.46,72.29,37Z"/></g></g><rect class="cls-3" width="157.58" height="157.58"/></g></g></svg>