<svg xmlns="http://www.w3.org/2000/svg" viewBox="0 0 116 115.23"><defs><style>.cls-1{fill:#fff;}.cls-2{fill:#5465ff;}</style></defs><g id="Layer_2" data-name="Layer 2"><g id="Layer_1-2" data-name="Layer 1"><rect width="116" height="29"/><polygon class="cls-1" points="99.82 29 84.2 29 93.89 14.5 84.2 0 99.82 0 109.5 14.5 99.82 29"/><polygon class="cls-1" points="37.22 29 21.61 29 31.3 14.5 21.61 0 37.22 0 46.91 14.5 37.22 29"/><polygon class="cls-1" points="68.5 29 52.9 29 62.58 14.5 52.9 0 68.5 0 78.19 14.5 68.5 29"/><rect x="8.5" y="13.69" width="101" height="1.62"/><circle class="cls-1" cx="12.5" cy="14.5" r="3"/><rect class="cls-2" y="29" width="116" height="86.23"/><path class="cls-1" d="M65.5,96c0-9.65-15-9.66-15,0s15,9.66,15,0Z"/><path class="cls-1" d="M50,54.74c2.12-7.48,14.45-7.84,15.76.36.72,4.56-2.14,7-5.44,9.31-4.26,3-7.5,6.22-8.7,11.46-1.55,6.77,8.86,9.65,10.4,2.87,1.3-5.65,8.76-7.47,11.79-12.31,4-6.41,3.72-15.53-1.2-21.34-9.81-11.59-28.88-7.81-33,6.78-1.9,6.7,8.51,9.55,10.41,2.87Z"/></g></g></svg>