<svg xmlns="http://www.w3.org/2000/svg" viewBox="0 0 117.42 141.67"><defs><style>.cls-1{fill:none;}.cls-2{fill:#fff;}.cls-3{fill:#5465ff;}</style></defs><g id="Layer_2" data-name="Layer 2"><g id="Layer_1-2" data-name="Layer 1"><polygon class="cls-1" points="2.51 31.31 2.5 31.32 12.13 28.39 12.13 28.39 2.51 31.31"/><polygon class="cls-2" points="16.35 42.25 113.48 12.68 16.35 42.25 16.35 42.25"/><polygon class="cls-2" points="12.13 28.39 18.96 26.31 31.68 36.73 46.62 32.19 33.9 21.76 48.89 17.2 61.61 27.63 76.54 23.08 63.82 12.65 78.84 8.08 91.56 18.51 106.5 13.96 93.78 3.53 105.04 0.1 105.04 0.1 12.13 28.39 12.13 28.39"/><polygon class="cls-2" points="113.24 11.91 113.24 11.91 111.31 5.58 111.31 5.57 113.24 11.91"/><path d="M111.31,5.57A7.87,7.87,0,0,0,105,.1L93.78,3.53,106.5,14,91.56,18.51,78.84,8.08l-15,4.57L76.54,23.08,61.61,27.63,48.89,17.2l-15,4.56L46.62,32.19,31.68,36.74,19,26.31l-6.83,2.08L2.5,31.32a7.87,7.87,0,0,0-2.16,8l1.94,6.35h0l.23.75,13.84-4.21,97.13-29.57-.24-.77h0Z"/><path d="M12.13,28.39,105,.1a8,8,0,0,0-3.55.24L5.58,29.53a8,8,0,0,0-3.07,1.78Z"/><polygon class="cls-2" points="47.76 41.74 32.15 41.74 23.07 55.34 38.68 55.34 47.76 41.74"/><polygon class="cls-2" points="79.04 41.74 63.43 41.74 54.35 55.34 69.96 55.34 79.04 41.74"/><polygon class="cls-2" points="110.35 41.74 94.74 41.74 85.66 55.34 101.27 55.34 110.35 41.74"/><path class="cls-3" d="M1.42,133.79a7.87,7.87,0,0,0,7.87,7.88H109.55a7.87,7.87,0,0,0,7.87-7.87V56.15H1.42Zm50.51-11.38c0-9.66,15-9.65,15,0S51.93,132.05,51.93,122.41ZM41,78.28c4.14-14.59,23.21-18.37,33-6.79,4.92,5.82,5.21,14.94,1.2,21.34-3,4.85-10.49,6.66-11.78,12.32-1.55,6.78-12,3.89-10.41-2.87,1.2-5.25,4.44-8.48,8.7-11.46,3.3-2.31,6.16-4.75,5.44-9.31-1.3-8.21-13.64-7.84-15.76-.36C49.55,87.83,39.14,85,41,78.28Z"/><path class="cls-2" d="M51.93,122.41c0,9.64,15,9.66,15,0S51.93,112.75,51.93,122.41Z"/><path class="cls-2" d="M51.45,81.15c2.12-7.48,14.46-7.85,15.76.36.72,4.56-2.14,7-5.44,9.31-4.26,3-7.5,6.21-8.7,11.46-1.55,6.76,8.86,9.65,10.41,2.87,1.29-5.66,8.75-7.47,11.78-12.32,4-6.4,3.72-15.52-1.2-21.34-9.81-11.58-28.88-7.8-33,6.79C39.14,85,49.55,87.83,51.45,81.15Z"/><path d="M15.89,44a3,3,0,0,1-3-3H1.42V56.15h116V41H18.89A3,3,0,0,1,15.89,44Zm78.85-2.22h15.61l-9.08,13.6H85.66Zm-31.31,0H79L70,55.34H54.35Zm-31.28,0H47.76l-9.08,13.6H23.07Z"/><circle class="cls-2" cx="15.89" cy="40.96" r="3"/></g></g></svg>