<svg xmlns="http://www.w3.org/2000/svg" viewBox="0 0 133.74 125.9"><defs><style>.cls-1{fill:#5465ff;}.cls-2{fill:#fff;}</style></defs><g id="Layer_2" data-name="Layer 2"><g id="Layer_1-2" data-name="Layer 1"><rect class="cls-1" x="7.35" y="38.13" width="101.88" height="82.07" rx="7.73"/><g id="Layer_2-2" data-name="Layer 2"><g id="Layer_1-2-2" data-name="Layer 1-2"><path d="M118.9,31.31H14.84A14.84,14.84,0,0,0,0,46.15v64.9A14.85,14.85,0,0,0,14.84,125.9H118.9a14.85,14.85,0,0,0,14.84-14.85V46.15A14.84,14.84,0,0,0,118.9,31.31ZM56.49,116.6c-47.19,0-47.19,0-47.19-38s0-38,47.19-38,47.19,0,47.19,38S103.68,116.6,56.49,116.6Z"/><circle class="cls-2" cx="118.71" cy="55.12" r="5.73"/><circle class="cls-2" cx="118.71" cy="72.61" r="5.73"/><path class="cls-2" d="M63.46,102.06c0-9-13.93-9-13.93,0S63.46,111.06,63.46,102.06Z"/><path class="cls-2" d="M49.09,63.74c2-7,13.43-7.29,14.64.33.67,4.24-2,6.5-5.06,8.65-4,2.77-7,5.77-8.08,10.65-1.43,6.28,8.23,9,9.67,2.66,1.2-5.25,8.13-6.94,10.94-11.44,3.73-6,3.46-14.42-1.11-19.82C61,44,43.26,47.52,39.42,61.07,37.66,67.29,47.33,69.94,49.09,63.74Z"/><path d="M66.87,25.05C55.4,25.05,46.1,29,46.1,33.85H87.64C87.64,29,78.34,25.05,66.87,25.05Z"/><rect x="56.94" y="7.92" width="5.54" height="26.44" rx="2.77" transform="translate(2.54 48.42) rotate(-45)"/><rect x="76.75" y="-5.34" width="5.54" height="41.98" rx="2.77" transform="translate(34.36 -51.65) rotate(45)"/></g></g></g></g></svg>