<svg xmlns="http://www.w3.org/2000/svg" xmlns:xlink="http://www.w3.org/1999/xlink" viewBox="0 0 129.94 132.81"><defs><style>.cls-1{fill:url(#linear-gradient);}.cls-2{fill:#fff;}</style><linearGradient id="linear-gradient" x1="55.84" y1="39.74" x2="55.84" y2="115.99" gradientUnits="userSpaceOnUse"><stop offset="0" stop-color="#6b7aff"/><stop offset="1" stop-color="#5465ff"/></linearGradient></defs><g id="Layer_2" data-name="Layer 2"><g id="Layer_1-2" data-name="Layer 1"><rect class="cls-1" x="7.04" y="36.87" width="97.61" height="82.07" rx="7.73"/><g id="Layer_2-2" data-name="Layer 2"><g id="Layer_1-2-2" data-name="Layer 1-2"><rect x="104.87" y="118.72" width="7.43" height="14.31" rx="3.71" transform="translate(-37.79 47.07) rotate(-20.92)"/><rect x="17.64" y="118.72" width="7.43" height="14.31" rx="3.71" transform="translate(-3.65 251.08) rotate(-159.08)"/><path class="cls-2" d="M63.28,103c0-9.62-14.87-9.62-14.87,0S63.28,112.56,63.28,103Z"/><path class="cls-2" d="M47.94,62c2.13-7.48,14.34-7.79,15.63.35.72,4.53-2.13,6.94-5.4,9.24-4.27,3-7.48,6.16-8.63,11.37C48,89.69,58.33,92.6,59.87,85.83c1.28-5.61,8.68-7.42,11.68-12.22,4-6.41,3.7-15.41-1.18-21.17-9.71-11.5-28.66-7.75-32.76,6.73C35.73,65.81,46.06,68.64,47.94,62Z"/><path d="M65,24.35c-11.47,0-20.77,3.94-20.77,8.8H85.74C85.74,28.29,76.44,24.35,65,24.35Z"/><rect x="55.55" y="7.92" width="5.54" height="26.44" rx="2.77" transform="translate(2.13 47.43) rotate(-45)"/><rect x="75.36" y="-5.34" width="5.54" height="41.98" rx="2.77" transform="translate(33.95 -50.66) rotate(45)"/><path d="M115.52,30.61H14.42A14.64,14.64,0,0,0,0,45.46v64.9A14.63,14.63,0,0,0,14.42,125.2h101.1a14.63,14.63,0,0,0,14.42-14.84V45.46A14.64,14.64,0,0,0,115.52,30.61ZM55.84,117.66C7,117.66,7,117.66,7,77.91s0-39.74,48.8-39.74,48.81,0,48.81,39.74S104.65,117.66,55.84,117.66Z"/><circle class="cls-2" cx="117.02" cy="57.44" r="5.73"/><circle class="cls-2" cx="117.02" cy="74.93" r="5.73"/></g></g></g></g></svg>