<svg xmlns="http://www.w3.org/2000/svg" viewBox="0 0 133.74 137.29"><defs><style>.cls-1{fill:#5465ff;}.cls-2{fill:#fff;}</style></defs><g id="Layer_2" data-name="Layer 2"><g id="Layer_1-2" data-name="Layer 1"><rect y="42.69" width="133.74" height="94.59" rx="18.95"/><ellipse class="cls-1" cx="56.49" cy="89.99" rx="47.19" ry="37.99"/><rect x="33.95" y="24.74" width="36.98" height="9.31" rx="4.65" transform="translate(36.14 -28.47) rotate(45)"/><circle class="cls-2" cx="118.71" cy="71.5" r="5.73"/><circle class="cls-2" cx="118.71" cy="88.99" r="5.73"/><path class="cls-2" d="M63.46,113.44c0-9-13.93-9-13.93,0s13.93,9,13.93,0Z"/><path class="cls-2" d="M49.09,75.12c2-7,13.43-7.29,14.64.33.67,4.24-2,6.5-5.06,8.65-4,2.77-7,5.77-8.08,10.65-1.43,6.28,8.23,9,9.67,2.66,1.2-5.25,8.13-6.94,10.94-11.44,3.73-6,3.46-14.42-1.11-19.82C61,55.39,43.26,58.9,39.42,72.45c-1.76,6.22,7.91,8.87,9.67,2.67Z"/><path d="M66.87,36.43c-11.47,0-20.77,3.94-20.77,8.8H87.64C87.64,40.37,78.34,36.43,66.87,36.43Z"/><rect x="59.72" y="17.26" width="58.13" height="9.31" rx="4.65" transform="translate(167.07 -25.37) rotate(135)"/></g></g></svg>