<svg xmlns="http://www.w3.org/2000/svg" xmlns:xlink="http://www.w3.org/1999/xlink" viewBox="0 0 157.58 157.58"><defs><style>.cls-1{fill:url(#linear-gradient);}.cls-2{fill:#fff;}.cls-3{fill:none;}</style><linearGradient id="linear-gradient" x1="69.9" y1="49.8" x2="69.9" y2="124.14" gradientUnits="userSpaceOnUse"><stop offset="0" stop-color="#6b7aff"/><stop offset="1" stop-color="#5465ff"/></linearGradient></defs><g id="Layer_2" data-name="Layer 2"><g id="Layer_1-2" data-name="Layer 1"><rect class="cls-1" x="22.32" y="47.01" width="95.15" height="80.01" rx="7.73"/><g id="Layer_2-2" data-name="Layer 2"><g id="Layer_1-2-2" data-name="Layer 1-2"><rect x="117.69" y="126.79" width="7.24" height="13.95" rx="3.62" transform="matrix(0.93, -0.36, 0.36, 0.93, -39.77, 52.13)"/><rect x="32.65" y="126.79" width="7.24" height="13.95" rx="3.62" transform="translate(22.39 271.67) rotate(-159.08)"/><path class="cls-2" d="M77.15,111.42c0-9.37-14.5-9.37-14.5,0S77.15,120.79,77.15,111.42Z"/><path class="cls-2" d="M62.19,71.52c2.08-7.29,14-7.59,15.24.34.7,4.42-2.08,6.77-5.27,9-4.16,2.88-7.29,6-8.41,11.09-1.49,6.54,8.57,9.37,10.07,2.77,1.25-5.47,8.46-7.23,11.39-11.92,3.88-6.24,3.6-15-1.16-20.63C74.59,51,56.12,54.63,52.12,68.74,50.29,75.21,60.35,78,62.19,71.52Z"/><path d="M78.79,34.8c-11.18,0-20.25,3.84-20.25,8.58H99C99,38.64,90,34.8,78.79,34.8Z"/><rect x="69.61" y="18.78" width="5.4" height="25.78" rx="2.7" transform="translate(-1.22 60.4) rotate(-45)"/><rect x="88.92" y="5.86" width="5.4" height="40.92" rx="2.7" transform="translate(45.44 -57.08) rotate(45)"/><path d="M128.07,40.9H29.52A14.27,14.27,0,0,0,15.46,55.37v63.28a14.27,14.27,0,0,0,14.06,14.47h98.55a14.27,14.27,0,0,0,14.06-14.47V55.37A14.27,14.27,0,0,0,128.07,40.9ZM69.9,125.76c-47.58,0-47.58,0-47.58-38.75s0-38.74,47.58-38.74,47.57,0,47.57,38.74S117.47,125.76,69.9,125.76Z"/><circle class="cls-2" cx="129.53" cy="67.05" r="5.59"/><circle class="cls-2" cx="129.53" cy="84.1" r="5.59"/></g></g><rect class="cls-3" width="157.58" height="157.58"/></g></g></svg>