<svg xmlns="http://www.w3.org/2000/svg" viewBox="0 0 21.35 21.35"><defs><style>.cls-1{fill:#5465ff;}</style></defs><g id="Layer_2" data-name="Layer 2"><g id="Layer_1-2" data-name="Layer 1"><path class="cls-1" d="M16.26,19.45l-.47-1.4a.91.91,0,0,1,.29-1,8,8,0,0,0,1-1,1,1,0,0,1,1-.29l1.39.48a.94.94,0,0,0,1.16-.53l.67-1.61a.93.93,0,0,0-.45-1.19l-1.32-.65a.94.94,0,0,1-.52-.92A7.84,7.84,0,0,0,19,10a.93.93,0,0,1,.52-.92l1.32-.66a.92.92,0,0,0,.45-1.19l-.67-1.61a.93.93,0,0,0-1.16-.52l-1.4.47a.92.92,0,0,1-1-.28,7.41,7.41,0,0,0-1-1,1,1,0,0,1-.29-1l.48-1.39A.94.94,0,0,0,15.73.74L14.12.07a.93.93,0,0,0-1.19.45l-.65,1.32a.94.94,0,0,1-.92.52,7.84,7.84,0,0,0-1.37,0,.93.93,0,0,1-.92-.52L8.41.52A.94.94,0,0,0,7.22.07L5.61.74A.93.93,0,0,0,5.09,1.9l.47,1.4a.92.92,0,0,1-.28,1,7.41,7.41,0,0,0-1,1,.94.94,0,0,1-1,.29L1.9,5.09a.94.94,0,0,0-1.16.53L.07,7.23A.93.93,0,0,0,.52,8.42l1.32.65a.94.94,0,0,1,.52.92,7.84,7.84,0,0,0,0,1.37.93.93,0,0,1-.52.92l-1.32.66a.94.94,0,0,0-.45,1.19l.67,1.61a.93.93,0,0,0,1.16.52l1.4-.47a.91.91,0,0,1,1,.29,8,8,0,0,0,1,1,.94.94,0,0,1,.29,1l-.48,1.39a.94.94,0,0,0,.53,1.16l1.61.67a.93.93,0,0,0,1.19-.45l.65-1.32A.94.94,0,0,1,10,19a7.84,7.84,0,0,0,1.37,0,.93.93,0,0,1,.92.52l.66,1.32a.93.93,0,0,0,1.19.45l1.61-.67A.93.93,0,0,0,16.26,19.45ZM6.55,14.8a5.83,5.83,0,1,1,8.25,0A5.83,5.83,0,0,1,6.55,14.8Z"/></g></g></svg>