<svg xmlns="http://www.w3.org/2000/svg" xmlns:xlink="http://www.w3.org/1999/xlink" viewBox="0 0 35.59 35.59"><defs><style>.cls-1{fill:none;}.cls-2{fill:url(#linear-gradient);}</style><linearGradient id="linear-gradient" x1="17.8" y1="3.01" x2="17.8" y2="33.45" gradientUnits="userSpaceOnUse"><stop offset="0" stop-color="#6b7aff"/><stop offset="1" stop-color="#5465ff"/></linearGradient></defs><g id="Layer_2" data-name="Layer 2"><g id="Layer_1-2" data-name="Layer 1"><rect class="cls-1" width="35.59" height="35.59"/><path class="cls-2" d="M14.11,30.26c0-4.79,7.4-4.79,7.4,0S14.11,35,14.11,30.26ZM13.86,9.88C14.92,6.16,21,6,21.64,10.06c.36,2.25-1.06,3.45-2.69,4.6-2.12,1.47-3.72,3.06-4.29,5.66C13.9,23.66,19,25.1,19.8,21.73c.64-2.79,4.32-3.69,5.82-6.08A9.23,9.23,0,0,0,25,5.11C20.18-.61,10.76,1.26,8.72,8.46,7.78,11.77,12.92,13.18,13.86,9.88Z"/></g></g></svg>