<svg xmlns="http://www.w3.org/2000/svg" viewBox="0 0 34.64 18"><g id="Layer_2" data-name="Layer 2"><g id="Layer_1-2" data-name="Layer 1"><path d="M17.32,18C8.69,18,1.68,11.24.36,9.89a1.27,1.27,0,0,1,0-1.78C1.68,6.76,8.7,0,17.32,0S33,6.75,34.28,8.11h0a1.28,1.28,0,0,1,0,1.78C33,11.24,26,18,17.32,18ZM2.84,8.61a.52.52,0,0,0,0,.77c2.28,2.06,8,6.55,14.48,6.55S29.53,11.44,31.8,9.38a.52.52,0,0,0,0-.77c-2.35-2.15-7.95-6.53-14.48-6.53S5.19,6.46,2.84,8.61Zm30,1Zm-30.93,0h0ZM32.79,8.44Zm-30.94,0Z"/><circle cx="17.32" cy="9.02" r="6.16"/></g></g></svg>